<?xml version="1.0" encoding="utf-8"?>
<!-- Generator: Adobe Illustrator 27.2.0, SVG Export Plug-In . SVG Version: 6.00 Build 0)  -->
<svg version="1.1" id="Layer_1" xmlns="http://www.w3.org/2000/svg" xmlns:xlink="http://www.w3.org/1999/xlink" x="0px" y="0px"
	 viewBox="0 0 1415.1 521.6" style="enable-background:new 0 0 1415.1 521.6;" xml:space="preserve">
<style type="text/css">
	.st0{fill:#151616;stroke:#F2F2F2;stroke-width:2;stroke-miterlimit:10;}
	.st1{display:none;}
	.st2{display:inline;fill:#FFFFFF;}
	.st3{fill:#FFFFFF;}
	.st4{fill:url(#SVGID_1_);}
	.st5{fill:url(#SVGID_00000050662131943285269100000009337821862259423109_);}
	.st6{fill:url(#SVGID_00000105402917999452956250000016808643680459065986_);}
	.st7{fill:url(#SVGID_00000021807447555144551110000011676656744261441431_);}
</style>
<g>
	<g>
		<path class="st0" d="M1284.4,514.6l-1151.7,2.5C62.5,517.2,5.6,463.3,5.6,396.7V132.1c0-66.7,56.9-120.8,127.1-121l1151.7-2.5
			c70.2-0.2,127.1,53.8,127.1,120.4v264.6C1411.5,460.2,1354.6,514.4,1284.4,514.6z"/>
	</g>
	<g class="st1">
		<path class="st2" d="M525.5,140.7c18.2,0,28.9,11.3,28.9,30.6c0,19.3-10.7,30.7-28.9,30.7h-20.6v-61.3H525.5z M512.5,195.2h12.5
			c13.9,0,21.6-8.5,21.6-23.7c0-15.3-7.7-23.8-21.6-23.8h-12.5V195.2z"/>
		<path class="st2" d="M564.9,180c0-14.1,8.2-22.9,20.5-22.9c12.2,0,20.4,8.8,20.4,22.9c0,14.1-8.2,22.9-20.4,22.9
			C573.2,202.8,564.9,194,564.9,180z M598.3,180c0-10.4-5.1-16.4-12.9-16.4c-7.8,0-13,5.9-13,16.4c0,10.4,5.1,16.4,13,16.4
			C593.2,196.3,598.3,190.4,598.3,180z"/>
		<path class="st2" d="M661.5,202.1H654l-10-34.2h-0.2l-9.9,34.2h-7.5L614,157.9h7.4l8.8,36h0.2l10-36h7.1l10,36h0.2l8.8-36h7.3
			L661.5,202.1z"/>
		<path class="st2" d="M684.2,157.9h7v7.1h0.2c2.5-4.8,7.2-7.8,14-7.8c9.7,0,15.3,6.2,15.3,16.3v28.7h-7.4v-27.4
			c0-7.1-3.4-11-10.2-11c-7,0-11.5,4.9-11.5,12.4v26h-7.4V157.9z"/>
		<path class="st2" d="M734.8,140.7h7.4v61.3h-7.4V140.7z"/>
		<path class="st2" d="M754.4,180c0-14.1,8.2-22.9,20.5-22.9c12.2,0,20.4,8.8,20.4,22.9c0,14.1-8.2,22.9-20.4,22.9
			C762.6,202.8,754.4,194,754.4,180z M787.8,180c0-10.4-5.1-16.4-12.9-16.4c-7.8,0-13,5.9-13,16.4c0,10.4,5.1,16.4,13,16.4
			C782.7,196.3,787.8,190.4,787.8,180z"/>
		<path class="st2" d="M805.3,189.6c0-7.6,5.8-12.3,16-12.9l12.7-0.7v-3.7c0-5.4-3.6-8.6-9.7-8.6c-5.7,0-9.3,2.7-10.2,7h-7.1
			c0.5-7.6,7.1-13.5,17.5-13.5c10.4,0,16.9,5.6,16.9,14.4v30.6h-7v-7.6h-0.2c-2.6,5.1-8.2,8.4-14.2,8.4
			C811.2,202.8,805.3,197.5,805.3,189.6z M834,185.3v-3.6l-11.8,0.7c-5.9,0.4-9.3,3-9.3,7.2c0,4.2,3.5,7,8.8,7
			C828.6,196.5,834,191.6,834,185.3z"/>
		<path class="st2" d="M852.9,180c0-13.9,7.6-22.9,18.7-22.9c6.3,0,11.4,3.1,14.1,7.9h0.2v-24.3h7.4v61.3h-7.1v-7.5h-0.1
			c-2.8,5.1-7.9,8.2-14.3,8.2C860.6,202.8,852.9,193.8,852.9,180z M860.5,180c0,10,4.9,16.4,12.7,16.4c7.6,0,12.7-6.5,12.7-16.4
			c0-9.9-5.1-16.4-12.7-16.4C865.4,163.6,860.5,170,860.5,180z"/>
		<path class="st2" d="M927.7,180c0-14.1,8.2-22.9,20.5-22.9c12.2,0,20.4,8.8,20.4,22.9c0,14.1-8.2,22.9-20.4,22.9
			C935.9,202.8,927.7,194,927.7,180z M961.1,180c0-10.4-5.1-16.4-12.9-16.4c-7.8,0-13,5.9-13,16.4c0,10.4,5.1,16.4,13,16.4
			C956,196.3,961.1,190.4,961.1,180z"/>
		<path class="st2" d="M980.4,157.9h7v7.1h0.2c2.5-4.8,7.2-7.8,14-7.8c9.7,0,15.3,6.2,15.3,16.3v28.7h-7.4v-27.4
			c0-7.1-3.4-11-10.2-11c-7,0-11.5,4.9-11.5,12.4v26h-7.4V157.9z"/>
		<path class="st2" d="M1062.5,147.2v10.7h8.6v6.1h-8.6v26.3c0,4,1.7,5.9,5.5,5.9c0.8,0,2.5-0.1,3.1-0.2v6.2
			c-0.9,0.2-2.9,0.3-4.7,0.3c-8.1,0-11.3-3.3-11.3-11.8v-26.6h-6.6v-6.1h6.6v-10.7H1062.5z"/>
		<path class="st2" d="M1083.7,140.7h7.4v24.2h0.2c2.5-4.9,7.3-7.8,14-7.8c9.7,0,15.6,6.5,15.6,16.4v28.6h-7.4v-27.2
			c0-7-3.5-11.2-10.5-11.2c-7.4,0-11.9,5-11.9,12.7v25.8h-7.4V140.7z"/>
		<path class="st2" d="M1171.2,189.4c-1.3,7.7-8.8,13.4-18.4,13.4c-12.7,0-20.4-8.8-20.4-22.7c0-13.7,7.8-23,20-23
			c11.9,0,19.3,8.7,19.3,22.1v2.8H1140v0.4c0,8.5,5,14,12.9,14c5.6,0,9.7-2.8,11-7H1171.2z M1140.1,176.2h24
			c-0.2-7.4-4.8-12.7-11.8-12.7C1145.4,163.5,1140.6,168.8,1140.1,176.2z"/>
		<path class="st2" d="M542.9,251.2H562l41.4,114.1h-18.6l-10.4-30.8h-43.9L520,365.2h-18.6L542.9,251.2z M535.2,320.2h34.4
			l-17-50.1h-0.3L535.2,320.2z"/>
		<path class="st2" d="M622.1,282.1h17.1v14.3h0.4c5-9.9,14.1-15.9,26-15.9c21.2,0,34.8,16.6,34.8,43.2v0.1
			c0,26.5-13.7,43.2-34.5,43.2c-11.8,0-21.3-6-26.2-15.7h-0.4v41.7h-17.1V282.1z M682.9,323.8L682.9,323.8
			c0-17.8-8.5-28.6-21.8-28.6c-13,0-22.1,11.2-22.1,28.5v0.1c0,17.2,9.2,28.5,22.1,28.5C674.6,352.2,682.9,341.3,682.9,323.8z"/>
		<path class="st2" d="M721.6,282.1h17.1v14.3h0.4c5-9.9,14.1-15.9,26-15.9c21.2,0,34.8,16.6,34.8,43.2v0.1
			c0,26.5-13.7,43.2-34.5,43.2c-11.8,0-21.3-6-26.2-15.7h-0.4v41.7h-17.1V282.1z M782.5,323.8L782.5,323.8
			c0-17.8-8.5-28.6-21.8-28.6c-13,0-22.1,11.2-22.1,28.5v0.1c0,17.2,9.2,28.5,22.1,28.5C774.1,352.2,782.5,341.3,782.5,323.8z"/>
		<path class="st2" d="M859.1,334.9l-0.1-1.2h17.2l0.2,1c1.6,10.5,12.1,17.1,27.3,17.1c15.3,0,24.9-6.9,24.9-17.5v-0.1
			c0-9.2-6.2-14.1-21.3-17.5l-12.4-2.6c-22.4-4.7-33.2-15-33.2-31.9v-0.1c0.1-19.4,17.2-32.8,41.3-32.8c23.8,0,40.1,13,41.3,32.1
			l0.1,1.3h-17.2l-0.1-1.1c-1.6-10.6-10.7-17-24.3-17c-14.1,0.1-23.2,6.8-23.2,16.8v0.1c0,8.5,6.5,13.8,20.7,16.8l12.5,2.6
			c23.6,5,33.7,14.5,33.7,32.2v0.1c0,20.8-16.4,34-43.5,34C877.4,367.1,860.5,355,859.1,334.9z"/>
		<path class="st2" d="M973.2,343.4v-47.7h-11.9v-13.6h11.9v-21.7h17.5v21.7h15.6v13.6h-15.6v46.6c0,8.5,3.8,11,11,11
			c1.8,0,3.3-0.2,4.6-0.3v13.2c-2,0.3-5.2,0.7-8.7,0.7C981.1,366.9,973.2,360,973.2,343.4z"/>
		<path class="st2" d="M1022.8,323.7v-0.2c0-26.6,15.7-43,39.4-43c23.7,0,39.5,16.4,39.5,43v0.2c0,26.8-15.7,43.2-39.4,43.2
			C1038.3,366.9,1022.8,350.4,1022.8,323.7z M1084.2,323.7v-0.2c0-18.2-8.7-28.7-22.1-28.7c-13.1,0-21.9,10.5-21.9,28.7v0.2
			c0,18.4,8.7,28.9,22.1,28.9C1075.6,352.6,1084.2,342,1084.2,323.7z"/>
		<path class="st2" d="M1122.9,282.1h17.1v14.2h0.4c2.7-9.7,9.6-15.8,19.1-15.8c2.5,0,4.6,0.4,5.9,0.6V297c-1.3-0.6-4.3-0.9-7.7-0.9
			c-11,0-17.8,7.2-17.8,19.6v49.6h-17.1V282.1z"/>
		<path class="st2" d="M1176.9,324L1176.9,324c0-26.1,15-43.5,38.3-43.5c23.3,0,37.6,16.8,37.6,41.7v5.8H1194
			c0.3,15.7,8.9,24.9,22.5,24.9c10.1,0,16.8-5.2,19-11.5l0.2-0.6h16.2l-0.2,0.9c-2.7,13.2-15.5,25.2-35.6,25.2
			C1191.7,366.9,1176.9,350.2,1176.9,324z M1194.2,315.9h41.7c-1.4-14.4-9.5-21.4-20.6-21.4C1204.2,294.5,1195.7,302,1194.2,315.9z"
			/>
		<path class="st2" d="M349.3,228.6c-10.6,7.4-17.9,14.8-21.7,22.3c-3.8,7.5-5.7,15.5-5.7,24.2c0,6.9,1.1,13.2,3.4,18.9
			c2.3,5.7,5.5,11.1,9.6,16.3c4.2,5.1,11.1,10.2,20.8,15.3c-3.8,11-9.6,22.3-17.5,33.8c-7.9,11.5-15.1,19.6-21.5,24.4
			c-6.4,4.8-12.6,7.2-18.4,7.2c-4.7,0-11-1.5-18.9-4.5l-3.7-1.4l-6-2.5c-4.3-1.3-9-1.9-14.2-1.9c-5.3,0-11.3,1.2-17.9,3.5l-4.7,1.8
			l-5.8,2.3c-4.7,1.8-9.3,2.7-14,2.7c-9.9,0-20.4-6.9-31.7-20.7c-11.3-13.8-19.8-28.7-25.6-44.6c-5.8-15.9-8.7-32-8.7-48.2
			c0-20.9,5.9-38.3,17.8-52.2c11.9-13.9,28-20.8,48.4-20.8c7.4,0,14.3,1.4,20.8,4.1l4.5,1.8l4.7,1.9c4.2,1.7,7.5,2.5,9.9,2.5
			c3.6,0,7.3-0.7,10.9-2.1l6.2-2.3l4.5-1.8c7.3-2.7,15.3-4.1,24.1-4.1C319.8,204.4,336.6,212.5,349.3,228.6z M299.8,135.8
			c0.3,2.9,0.4,5.1,0.4,6.6c0,8.1-2.3,16.4-7,24.9c-4.7,8.6-10.8,15.2-18.3,20c-7.5,4.7-15.8,7.1-24.9,7.1c-0.4-3.1-0.6-5.4-0.6-6.8
			c0-6.9,2-14.1,6.1-21.7c4.1-7.6,9.6-14,16.6-19.4c7-5.3,14.9-8.7,23.8-10.1C296.7,136.3,298,136.1,299.8,135.8z"/>
	</g>
</g>
<g>
	<g>
		<path class="st3" d="M560.8,189.5c0,7.6-2.2,13.6-6.7,18.1c-5.1,5.3-11.7,8-19.9,8c-7.8,0-14.5-2.7-19.9-8.1
			c-5.5-5.4-8.2-12.1-8.2-20.2c0-8,2.7-14.7,8.2-20.2c5.5-5.4,12.1-8.1,19.9-8.1c3.9,0,7.6,0.8,11.1,2.3c3.5,1.5,6.4,3.5,8.5,6.1
			l-4.8,4.8c-3.6-4.3-8.5-6.4-14.8-6.4c-5.7,0-10.6,2-14.8,6c-4.2,4-6.2,9.2-6.2,15.6c0,6.4,2.1,11.6,6.2,15.6c4.2,4,9.1,6,14.8,6
			c6.1,0,11.1-2,15.1-6c2.6-2.6,4.1-6.3,4.5-11h-19.7v-6.5h26.3C560.7,186.8,560.8,188.2,560.8,189.5z"/>
		<path class="st3" d="M602.5,166.9h-24.7v17.2H600v6.5h-22.3v17.2h24.7v6.7h-31.6v-54.2h31.6V166.9z"/>
		<path class="st3" d="M631.8,214.4h-7v-47.5h-15.1v-6.7H647v6.7h-15.1V214.4z"/>
		<path class="st3" d="M673.9,214.4v-54.2h7v54.2H673.9z"/>
		<path class="st3" d="M711.7,214.4h-7v-47.5h-15.1v-6.7h37.2v6.7h-15.1V214.4z"/>
		<path class="st3" d="M797.4,207.4c-5.3,5.5-12,8.2-19.9,8.2c-7.9,0-14.5-2.7-19.9-8.2c-5.3-5.5-8-12.2-8-20.1
			c0-7.9,2.7-14.6,8-20.1c5.3-5.5,11.9-8.2,19.9-8.2c7.9,0,14.5,2.8,19.8,8.3c5.3,5.5,8,12.2,8,20.1
			C805.4,195.2,802.7,201.9,797.4,207.4z M762.8,202.9c4,4.1,8.9,6.1,14.7,6.1c5.8,0,10.7-2,14.7-6.1c4-4.1,6-9.2,6-15.6
			s-2-11.5-6-15.6c-4-4.1-8.9-6.1-14.7-6.1c-5.8,0-10.7,2-14.7,6.1c-4,4.1-6,9.2-6,15.6S758.8,198.8,762.8,202.9z"/>
		<path class="st3" d="M815.1,214.4v-54.2h8.5l26.3,42.2h0.3l-0.3-10.4v-31.7h7v54.2h-7.3l-27.6-44.2h-0.3l0.3,10.4v33.8H815.1z"/>
		<path class="st3" d="M744.8,297.5c-10.7,0-20.4,4.1-27.4,11c-6.9,6.8-11.2,16.3-11.2,27.4c0,11.7,4.8,21.7,12.5,28.6
			c6.9,6.2,16,9.8,26,9.8c9.4,0,18.1-3.2,24.8-8.7c8.4-6.9,13.8-17.4,13.8-29.7c0-9.1-2.9-17.2-7.8-23.6
			C768.5,303.1,757.3,297.5,744.8,297.5z M744.8,359.2c-11.6,0-21.7-9.6-21.7-23.3c0-13.8,10-23.3,21.7-23.3
			c11.6,0,21.7,9.5,21.7,23.3C766.5,349.6,756.4,359.2,744.8,359.2z M660.7,297.5c-8,0-15.4,2.3-21.5,6.3c-10.3,6.7-17,18.2-17,32.1
			c0,11.1,4.3,20.7,11.3,27.5c7,6.8,16.6,10.9,27.2,10.9c8.8,0,16.9-2.8,23.4-7.7c9.2-6.9,15.1-17.8,15.1-30.8
			c0-7.4-1.9-14.1-5.2-19.8C687.3,304.7,674.9,297.5,660.7,297.5z M660.7,359.2c-11.6,0-21.7-9.6-21.7-23.3
			c0-13.8,10-23.3,21.7-23.3c11.6,0,21.7,9.5,21.7,23.3C682.4,349.6,672.3,359.2,660.7,359.2z M560.6,309.3v16.3H581h18.6
			c-1.2,9.2-4.2,15.9-8.9,20.5c-5.7,5.7-14.5,11.9-30.1,11.9c-24,0-42.8-19.4-42.8-43.4c0-24,18.8-43.4,42.8-43.4
			c12.9,0,22.4,5.1,29.4,11.6l11.5-11.5c-9.7-9.3-22.7-16.4-40.9-16.4c-11.2,0-21.7,3.1-30.8,8.5c-17.7,10.4-29.7,29.5-29.7,51.2
			c0,22.4,12.8,42,31.4,52.2c8.7,4.8,18.6,7.5,29.1,7.5c17.8,0,31.1-5.8,41.6-16.7c10.8-10.8,14.1-25.9,14.1-38.1
			c0-3.8-0.3-7.3-0.9-10.2h-28.1H560.6z M969.8,321.9c-3.2-8.6-12.9-24.4-32.9-24.4c-8.5,0-16.4,2.9-22.6,8
			c-8.3,6.8-13.6,17.4-13.6,30.4c0,21.5,16.3,38.4,38.1,38.4c17.6,0,27.8-10.8,32-17l-13.1-8.7c-4.4,6.4-10.3,10.6-18.9,10.6
			c-8.6,0-14.7-3.9-18.6-11.6l51.4-21.2L969.8,321.9z M917.4,334.7c-0.4-14.8,11.5-22.4,20.1-22.4c6.7,0,12.4,3.3,14.3,8.1
			l-17.9,7.4L917.4,334.7z M875.7,372h16.9V259.1h-16.9V372z M848,306.1h-0.6c-3.8-4.5-11.1-8.6-20.2-8.6c-8.9,0-17.4,3.6-24,9.6
			c-7.7,7-12.8,17.3-12.8,28.9c0,13.5,6.9,25,16.7,31.8c5.9,4.1,12.9,6.4,20.1,6.4c9.2,0,16.4-4.1,20.2-8.7h0.6v5.5
			c0,14.7-7.9,22.6-20.5,22.6c-10.3,0-16.7-7.4-19.3-13.7l-14.7,6.1c4.2,10.2,15.4,22.7,34,22.7c19.8,0,36.5-11.6,36.5-40v-69h-16
			V306.1z M828.7,359.2c-11.6,0-21.4-9.7-21.4-23.1c0-13.5,9.7-23.4,21.4-23.4c11.5,0,20.5,9.9,20.5,23.4
			C849.2,349.4,840.2,359.2,828.7,359.2z M1048.9,259.1h-40.4V372h16.8v-42.8h23.5c10.7,0,21.4-4.5,28.5-12.4
			c5.2-5.8,8.6-13.5,8.6-22.7c0-9-3.2-16.6-8.3-22.4C1070.5,263.6,1059.7,259.1,1048.9,259.1z M1049.3,313.5h-24v-38.7h24
			c12.6,0,19.8,10.4,19.8,19.3C1069,302.9,1061.9,313.5,1049.3,313.5z M1153.4,297.3c-12.2,0-24.8,5.4-30.1,17.3l15,6.2
			c3.2-6.2,9.2-8.3,15.4-8.3c8.7,0,17.6,5.2,17.7,14.5v1.2c-3.1-1.7-9.6-4.4-17.6-4.4c-6.9,0-13.9,1.6-19.6,4.8
			c-7.6,4.2-12.9,11.2-12.9,20.6c0,8.2,3.9,14.8,9.8,19.1c5,3.7,11.4,5.7,18.2,5.7c11.3,0,17.6-5.1,21.5-11h0.6v8.7h16.3v-26.6
			v-16.7c0-11.9-5.3-20.7-13.6-25.8C1168.4,299.1,1161.3,297.3,1153.4,297.3z M1151.4,359.1c-5.5,0-13.2-2.8-13.2-9.6
			c0-8.7,9.6-12.1,17.9-12.1c7.4,0,10.9,1.6,15.4,3.8C1170.1,351.7,1161.1,359.1,1151.4,359.1z M1247,299.7l-8,20.3l-11.3,28.7h-0.6
			l-20-48.9h-18.2l14.5,33l15.6,35.4l-17.1,38.1h17.6l32.9-75.5l13.5-30.9H1247z M1095.2,372h16.8V259.1h-16.8V372z"/>
	</g>
	<linearGradient id="SVGID_1_" gradientUnits="userSpaceOnUse" x1="-4.4948" y1="-4.8287" x2="272.3152" y2="222.5942">
		<stop  offset="0" style="stop-color:#32A071"/>
		<stop  offset="6.850000e-02" style="stop-color:#2DA771"/>
		<stop  offset="0.4762" style="stop-color:#15CF74"/>
		<stop  offset="0.8009" style="stop-color:#06E775"/>
		<stop  offset="1" style="stop-color:#00F076"/>
	</linearGradient>
	<path class="st4" d="M330.7,234.5l-134.2-78.7c-6.9-4-15-1.7-19.2,3.9L291,274L330.7,234.5z"/>
	
		<linearGradient id="SVGID_00000134953578817272875000000018144798713316371369_" gradientUnits="userSpaceOnUse" x1="370.4036" y1="272.3904" x2="163.7118" y2="273.6098">
		<stop  offset="0" style="stop-color:#00A0FF"/>
		<stop  offset="6.574450e-03" style="stop-color:#00A1FF"/>
		<stop  offset="0.2601" style="stop-color:#00BEFF"/>
		<stop  offset="0.5122" style="stop-color:#00D2FF"/>
		<stop  offset="0.7604" style="stop-color:#00DFFF"/>
		<stop  offset="1" style="stop-color:#00E3FF"/>
	</linearGradient>
	<path style="fill:url(#SVGID_00000134953578817272875000000018144798713316371369_);" d="M174.5,379c0,3.2,1,6,2.6,8.3L291,274
		L177.3,159.7c-1.8,2.4-2.8,5.3-2.8,8.7V379z"/>
	
		<linearGradient id="SVGID_00000091726727947937222820000006182352590584328620_" gradientUnits="userSpaceOnUse" x1="399.3525" y1="279.3017" x2="212.7804" y2="264.6685">
		<stop  offset="0" style="stop-color:#FFE000"/>
		<stop  offset="0.4087" style="stop-color:#FFBD00"/>
		<stop  offset="0.7754" style="stop-color:#FFA500"/>
		<stop  offset="1" style="stop-color:#FF9C00"/>
	</linearGradient>
	<path style="fill:url(#SVGID_00000091726727947937222820000006182352590584328620_);" d="M330,313.3l46-27c9.6-5.6,9.6-19.6,0-25.2
		l-45.3-26.6L291,274L330,313.3z"/>
	
		<linearGradient id="SVGID_00000036968794936260883990000001070063488857097613_" gradientUnits="userSpaceOnUse" x1="375.059" y1="250.8067" x2="15.938" y2="489.2047">
		<stop  offset="0" style="stop-color:#FF3A44"/>
		<stop  offset="1" style="stop-color:#C31162"/>
	</linearGradient>
	<path style="fill:url(#SVGID_00000036968794936260883990000001070063488857097613_);" d="M177.1,387.4c4.1,5.9,12.4,8.4,19.4,4.3
		L330,313.3L291,274L177.1,387.4z"/>
</g>
</svg>
