<svg width="65" height="65" viewBox="0 0 65 65" fill="none" xmlns="http://www.w3.org/2000/svg">
<g clip-path="url(#clip0_1023_5959)">
<path d="M41.9556 45.5331H27.7778V30.0664" stroke="#1e90ff" stroke-width="2.5" stroke-miterlimit="10"/>
<path d="M27.7778 17.1777V9.44434H61.2889V45.5332H47.1112" stroke="#1e90ff" stroke-width="2.5" stroke-miterlimit="10"/>
<path d="M14.889 17.178C17.8405 17.178 20.0445 14.7033 20.0445 11.6486V9.8184C20.0445 6.76373 17.8405 4.28906 14.889 4.28906C11.9374 4.28906 9.7334 6.76373 9.7334 9.8184V11.6615C9.7334 14.7033 11.9374 17.178 14.889 17.178Z" stroke="#1e90ff" stroke-width="2.5" stroke-miterlimit="10"/>
<path d="M21.3334 61.0005V26.2005H27.7778C31.6703 26.2005 32.9334 23.9063 32.9334 21.0449C30.9227 21.0449 12.1049 21.0449 9.73338 21.0449C5.11916 21.0449 3.28894 22.9911 3.28894 28.7783V37.8005C3.28894 40.5716 4.39738 42.956 7.15561 42.956H8.4445" stroke="#1e90ff" stroke-width="2.5" stroke-miterlimit="10"/>
<path d="M14.8889 39.0889V61" stroke="#1e90ff" stroke-width="2.5" stroke-miterlimit="10"/>
<path d="M8.44446 28.7783V61.0005" stroke="#1e90ff" stroke-width="2.5" stroke-miterlimit="10"/>
<path d="M48.4001 41.667V53.267L44.5334 49.4003L40.6667 53.267V41.667" fill="#1e8fff90"/>
<path d="M48.4001 41.667V53.267L44.5334 49.4003L40.6667 53.267V41.667" stroke="#1e90ff" stroke-width="2.5" stroke-miterlimit="10" stroke-linecap="round" stroke-linejoin="round"/>
<path d="M44.5334 42.9556C47.3807 42.9556 49.6889 40.6474 49.6889 37.8001C49.6889 34.9528 47.3807 32.6445 44.5334 32.6445C41.686 32.6445 39.3778 34.9528 39.3778 37.8001C39.3778 40.6474 41.686 42.9556 44.5334 42.9556Z" fill="#C1EDD0" stroke="#1e90ff" stroke-width="2.5" stroke-miterlimit="10" stroke-linecap="round" stroke-linejoin="round"/>
<path d="M38.089 21.0449H50.9779" stroke="#1e90ff" stroke-width="2.5" stroke-miterlimit="10" stroke-linejoin="round"/>
<path d="M40.6667 26.2002H48.4001" stroke="#1e90ff" stroke-width="2.5" stroke-miterlimit="10" stroke-linejoin="round"/>
</g>
<defs>
<clipPath id="clip0_1023_5959">
<rect width="60.5778" height="58" fill="white" transform="translate(2 3)"/>
</clipPath>
</defs>
</svg>
